<?xml version="1.0" encoding="UTF-8"?>
<svg id="Capa_1" data-name="Capa 1" xmlns="http://www.w3.org/2000/svg" version="1.1" viewBox="0 0 566.9 566.9">
  <defs>
    <style>
      .cls-1, .cls-2 {
        fill: #000000;
        stroke-width: 0px;
      }

      .cls-2 {
        fill-rule: evenodd;
      }
    </style>
  </defs>
  <g>
    <path class="cls-2" d="M404.5,284.2c-7.6,2.6-15.7,4.9-24.6,6.3-.2,0-.4.2-.4.3s0,.2,0,.3c1.5,1.2,3.4,1.9,5.7,2.2,2.9.3,6.3,0,10.3-1.1,3.5-.9,6.9-2.5,10.7-4.4,3.6-1.8,7.1-3.8,10.1-5.9,3-2.2,5.3-4.3,6.7-6.1,0-.3,0-.4-.2-.4-4.6,3.2-10.9,6.2-18.4,8.8M422.1,271.1c.1-.3,0-.4-.1-.5-7.3,2.9-23.2,5.7-33.1,7.2-8.6,1.3-15.9,1.5-20,1.8h-1.8c-.2.2-.4.3-.4.5,0,.1,0,.2.2.4.7.9,3.1,3.1,7.9,3.9,5.5.8,13.8-.6,24-3.6,8.6-2.5,18.5-6.7,23.3-9.6M421,284c-6.2,6.1-15.4,9.5-18.4,10.5-.2,0-.3.2-.3.3,0,.1,0,.3.2.4.5.2,4.2,2.2,11.1-1.3,4-2,6-5.3,7.8-9.6,0-.2,0-.4-.2-.4,0,0-.2,0-.2,0M385.9,192.9c1.9,2,4.2,3.5,7.1,4.4h.2c.9.3,49.2,13.4,62,17,5.6,1.6,10,2.8,12.1,3.4.2,0,.4,0,.4-.2,0,0,0-.2-.2-.2-8.1-3.3-57.9-22.9-76.7-30.3l-7.9-3.1c-.3,0-.4,0-.5,0-.1.1-.1.3-.1.3,0,.7.5,4.3,2.1,6.9.5.7.9,1.3,1.5,1.9M388.1,173.7c1,1.2,1.9,2,3.6,3.1.6.4,1.2.8,1.9,1.1l4.5,2.3c2.5,1.3,39.8,19.1,45.3,21.8,6.5,3.3,12.9,6.4,15.7,7.8.3,0,.4,0,.3-.4-7-4.4-33.6-21.6-52.6-33.6l-13.7-8.4-2.5-1.6-4.7-2.9c-.2-.1-.4,0-.5,0-.2,0-.2.2-.2.3,0,.6-.1,4.2,1,6.9.5,1.2,1.1,2.5,1.9,3.5M473.1,222.5c-6.4-1.2-84.5-15.6-84.5-15.6-.2,0-.3,0-.5.2,0,.1,0,.3,0,.5,1.2,4.1,4.3,8.2,9.5,9.9.6.2,1.1.2,1.7.3,0,0,66.2,4.7,73.6,5.2.2,0,.3,0,.3-.2s0-.3-.2-.3M456.7,227.1c-6.9,0-15.4,0-23.3,0-10.7,0-27.6,0-27.6,0,0,0-.2,0-.3.1,0,.1,0,.2,0,.3.3.8,1.2,2.6,2.3,3.7,2.1,2.3,4.4,3.4,6.8,3.7.3,0,.6,0,.9,0s.6,0,.9,0c.3,0,50.7-7,53.5-7.4.1,0,.2-.1.2-.2s-.1-.3-.2-.3c-2.4,0-7.1,0-13.1,0M466,232.2c-3.1.9-15,3.9-25.5,6.6-9.1,2.3-19.3,5.1-19.3,5.1-1.1.3-.7.7-.6.9.2.4.9,1.4,1.5,2.5,1.6,2.8,3.8,2.4,5.8,1.7.4-.1,36.5-15.2,38.2-16.4.2-.1,0-.3,0-.4,0-.1-.2-.1-.3-.1M449.8,257.6c-4.8,4-12.1,10.4-19.7,16.8-.7.6-1,1.6-1.3,3-.5,2.2-1.6,5-1.6,5-.2.6,0,.9.7.3,5.9-6.3,18.8-20.6,22.3-24.8,0-.3,0-.4-.2-.4h-.2c0,0,0,0,0,0ZM441.7,251.7c-4.3,2.7-9.8,5.7-12.6,7.5-.3.2-.6.2-.5,1.1,0,0,.2.8.2,1.8.3,4.2,2,3.8,4.5,1.9l.3-.3c8.7-7.2,24.9-20.9,28.5-23.9,0-.3,0-.4-.2-.4-3.5,2.1-12.5,7.7-20.3,12.3"/>
    <path class="cls-2" d="M224.6,209.1v40.3c0,13.9-13.7,20.8-27.7,20.8s-26.8-6.8-26.8-20.8v-55.1c6,0,12.8,2,12.9,13.1v38.8c.1,7.6,5.7,11.4,14.4,11.4s14.4-3.8,14.4-11.4v-51.9c8.9,0,12.9,3.9,12.9,14.7M269,194.4c-16,0-27,9.4-27,28.6v46.2h12.9v-46.7c0-9.9,5.3-15.9,15.2-15.9h3.8c11.3,0,13.2-5.9,13.2-12.3h-18.1ZM324.2,194.4h28.6v74.9c-8.1,0-12.2-2.3-13.1-10,0,0-5.7,11.4-21.9,11.4s-31.4-15.8-30.8-38.5c.7-24.9,16.9-37.7,34-37.7h3.2s0,0,0,0ZM338.9,206.4h-14.9c-.8,0-1.6.1-2.5.1-11.2,0-19.8,7.9-20.3,25.8-.5,18.7,7.6,26.4,19,26.4s18.6-9.8,18.6-20.2v-32.1h0ZM139.5,227.9l-15.8-4.4c-4.3-1.2-8.3-3.1-8.3-8.5s3.3-8.3,10.4-8.3h14c6.2,0,13.6-2.1,13.6-12.3h-26.4c-16.2,0-25.6,8.4-25.6,20.3s7,17.3,19.4,20.7l13.7,3.7c5.7,1.5,7.7,5.1,7.7,8.9,0,5.6-3.5,9-12,9.1l-26.3.2v12.1h26.8c16.3,0,25.6-8.9,25.6-20.5s-4.6-17.5-16.8-20.8"/>
  </g>
  <g>
    <path class="cls-1" d="M390,384.8c-3-1.7-6.2-2.5-9.7-2.5s-6.7.8-9.7,2.5-5.3,4-7,7c-1.7,3-2.6,6.3-2.6,9.9s.9,6.9,2.6,9.9c1.7,3,4.1,5.3,7,7,3,1.7,6.2,2.5,9.7,2.5s6.7-.8,9.7-2.5,5.3-4,7-7,2.6-6.3,2.6-9.9-.9-6.9-2.6-9.9c-1.7-3-4.1-5.3-7-7Z"/>
    <path class="cls-1" d="M335.9,396.1c.8-1.4,1.1-2.9,1.1-4.4s-.4-3-1.1-4.4c-.8-1.4-1.8-2.5-3.2-3.3s-2.9-1.2-4.6-1.2h-9v17.9h9c1.7,0,3.3-.4,4.6-1.2,1.4-.8,2.4-1.9,3.2-3.3h0Z"/>
    <path class="cls-1" d="M51.1,349.7v104.2h464.1v-104.2H51.1ZM148.2,421.1c-1.7,2.4-4,4.4-6.9,5.8-2.9,1.4-6.1,2.1-9.6,2.1s-8-.8-11.4-2.5c-3.4-1.7-5.8-4.1-7.2-7.2l6.2-5.1c1,2.4,2.6,4.3,4.8,5.6s4.8,2,7.8,2,3.7-.4,5.3-1.1c1.6-.7,2.9-1.7,3.8-2.9s1.3-2.6,1.3-4.2c0-4.1-2.6-6.7-7.8-7.7l-7.5-1.3c-4-.6-7.1-2.2-9.4-4.6-2.3-2.5-3.5-5.7-3.5-9.6s.8-5.7,2.5-8.1c1.7-2.4,3.9-4.3,6.8-5.6,2.8-1.4,5.9-2,9.1-2s7.4.8,10.5,2.5c3.1,1.6,5.4,4,6.7,6.9l-6.1,5.3c-.8-2.4-2.3-4.3-4.4-5.6-2.1-1.3-4.5-1.9-7.1-1.9s-3.4.3-4.9,1c-1.5.6-2.7,1.5-3.6,2.8s-1.3,2.6-1.3,4.2.6,3.6,1.9,4.8c1.3,1.2,3.1,2,5.5,2.4l6.5,1.2c4.6.8,8.2,2.4,10.7,4.8,2.5,2.5,3.7,5.8,3.7,10s-.9,5.7-2.6,8.2h0ZM187.8,427.8h-27.6v-52.2h26.9v7.2h-18.8v15.4h17.6v6.4h-17.6v16.1h19.5v7.2h0ZM249.1,405.4c-.3,4.1-1.7,7.9-4.2,11.5s-5.7,6.5-9.7,8.7c-4,2.2-8.4,3.3-13,3.3s-10.1-1.2-14.3-3.5c-4.2-2.4-7.6-5.6-10-9.8-2.4-4.2-3.7-8.8-3.7-13.9s1.2-9.5,3.7-13.6c2.4-4.2,5.8-7.5,10-9.9,4.2-2.4,8.9-3.6,14-3.6s10.7,1.3,15,3.9,7.6,6.2,9.7,10.6l-7.2,4.2c-1.5-3.2-3.8-5.8-6.9-7.9-3.1-2.1-6.6-3.1-10.6-3.1s-6.7.8-9.7,2.5-5.3,4-7,7c-1.7,3-2.6,6.3-2.6,9.9s.9,7,2.6,9.9c1.7,3,4.1,5.3,7.1,7s6.3,2.6,9.9,2.6,5.9-.7,8.6-2c2.7-1.4,4.9-3.2,6.7-5.5,1.3-1.7,2.2-3.7,2.8-5.8h-18.5v-6.8h27.5v4.4c0,0,0,0,0,0ZM299.1,411c0,3.1-.9,6-2.7,8.8-1.8,2.8-4.3,5-7.5,6.7-3.2,1.7-6.7,2.6-10.6,2.6s-7.8-.8-10.9-2.4c-3.1-1.6-5.5-3.8-7.1-6.6-1.6-2.8-2.4-5.7-2.4-8.9v-35.5h8v33.9c0,2,.5,4,1.6,5.8,1.1,1.8,2.6,3.2,4.5,4.4,1.9,1.1,4,1.6,6.4,1.6s4.4-.5,6.3-1.6,3.5-2.5,4.6-4.2,1.7-3.7,1.7-5.9v-33.9h8.2v35.4h0ZM338.4,427.8l-11.9-20.8h-7.4v20.8h-8.1v-52.2h18.1c3,0,5.8.7,8.3,2.1,2.5,1.4,4.4,3.4,5.8,5.8s2.1,5,2.1,7.8-.7,5.4-2.1,7.8c-1.4,2.4-3.3,4.3-5.8,5.8-1,.6-2,1-3.1,1.4l13.1,21.6h-9ZM404.3,415.3c-2.5,4.2-5.8,7.5-10,9.9s-8.9,3.7-14,3.7-10-1.2-14.3-3.5c-4.2-2.4-7.5-5.6-9.9-9.8-2.4-4.2-3.5-8.8-3.5-13.9s1.2-9.5,3.7-13.6c2.4-4.2,5.8-7.5,10-9.9,4.2-2.4,8.9-3.6,14-3.6s10,1.2,14.2,3.5c4.2,2.3,7.5,5.6,9.9,9.7,2.4,4.1,3.6,8.8,3.6,13.9s-1.2,9.5-3.7,13.6h0ZM449.4,421.1c-1.7,2.4-4,4.4-6.9,5.8-2.9,1.4-6.1,2.1-9.6,2.1s-8-.8-11.4-2.5-5.8-4.1-7.2-7.2l6.2-5.1c1,2.4,2.6,4.3,4.8,5.6s4.8,2,7.8,2,3.7-.4,5.3-1.1c1.6-.7,2.9-1.7,3.8-2.9.9-1.2,1.3-2.6,1.3-4.2,0-4.1-2.6-6.7-7.8-7.7l-7.5-1.3c-4-.6-7.1-2.2-9.4-4.6-2.3-2.5-3.5-5.7-3.5-9.6s.8-5.7,2.5-8.1c1.7-2.4,3.9-4.3,6.8-5.6,2.8-1.4,5.9-2,9.1-2s7.4.8,10.5,2.5c3.1,1.6,5.4,4,6.7,6.9l-6.1,5.3c-.8-2.4-2.3-4.3-4.4-5.6-2.1-1.3-4.5-1.9-7.1-1.9s-3.4.3-4.9,1c-1.5.6-2.7,1.5-3.5,2.8s-1.3,2.6-1.3,4.2.6,3.6,1.9,4.8c1.3,1.2,3.1,2,5.5,2.4l6.5,1.2c4.6.8,8.2,2.4,10.7,4.8,2.5,2.5,3.7,5.8,3.7,10s-.9,5.7-2.6,8.2h0Z"/>
  </g>
  <path class="cls-1" d="M514.2,112.1v240.3H52.1V112.1h462.1M515.2,111.1H51.1v242.3h464.1V111.1h0Z"/>
</svg>