<svg width="240" height="140" xmlns="http://www.w3.org/2000/svg"><title>Partners / Pepsil</title><path d="M95.144 108.232c3.938 0 7.013 3.145 7.013 7.155 0 1.935-.726 3.698-2.004 5.011-1.278 1.279-2.97 1.97-4.802 1.97h-.345c-1.9-.103-3.524-1.036-4.353-1.831l-.104-.104v6.256c0 .173-.173.311-.346.311h-1.761a.31.31 0 0 1-.311-.311v-9.955c0-1.347.138-2.73.276-3.249.83-3.145 3.524-5.253 6.737-5.253Zm31.748 0c3.938 0 7.013 3.145 7.013 7.155 0 1.935-.69 3.698-1.97 5.011-1.277 1.279-2.97 1.97-4.801 1.97h-.346c-1.934-.103-3.523-1.036-4.387-1.831l-.104-.104v6.256c0 .173-.173.311-.345.311h-1.762a.31.31 0 0 1-.31-.311v-9.955c0-1.347.138-2.73.276-3.249.829-3.145 3.523-5.253 6.736-5.253Zm-15.857-.035c3.04 0 5.597 1.936 6.564 4.977.138.415.207.83.276 1.245.035.242.07.449.07.622 0 .311.034.484-.242.691 0 0-.864.622-3.006 1.037-.553.07-1.07.104-1.624.104-.897 0-1.658-.104-2.383-.207-.38-.07-.76-.104-1.14-.139-.173-.034-.31-.034-.484-.034-1.312 0-2.177.414-2.28.449l-.035.035v.034c.519 1.728 2.419 2.973 4.319 2.973.173 0 .38 0 .587-.035a4.427 4.427 0 0 0 2.833-1.555.284.284 0 0 1 .276-.173c.07 0 .139.034.277.103l.276.139c.415.173 1.14.553 1.348.69.103.07.172.174.172.243a.556.556 0 0 1-.104.311c-1.243 1.52-2.867 2.316-4.767 2.558-.345.034-.657.069-.933.069-3.523 0-6.46-2.488-6.909-6.083-.518-3.975 2.108-7.5 5.976-7.984.311-.035.623-.07.933-.07Zm29.883-.034c1.97 0 3.386.483 4.837 1.624.034.035.172.173.172.312 0 .103-.034.172-.138.276-.345.345-.898.83-1.209 1.037a.421.421 0 0 1-.31.138.527.527 0 0 1-.346-.138c-1.106-.83-1.935-1.002-2.971-1.002-1.21 0-2.488.622-2.488 1.797 0 1.071 1.416 1.555 1.831 1.659.622.207 1.313.311 1.97.45.31.068.552.103.829.172.794.173 3.454.933 3.454 3.733 0 2.04-1.693 4.078-5.458 4.113h-.07c-2.21 0-3.868-.795-5.423-2.212-.035-.035-.138-.138-.104-.277-.034-.068 0-.138.07-.207.044-.06.291-.265.568-.488l.414-.333c.219-.174.397-.317.434-.354a.374.374 0 0 1 .242-.104c.103 0 .207.07.276.138 1.037.933 2.28 1.487 3.662 1.487 1.692 0 2.73-.865 2.764-1.728.034-.865-.622-1.487-1.797-1.694l-1.761-.346c-2.833-.588-4.423-1.936-4.423-3.837 0-2.385 2.142-4.216 4.975-4.216Zm10.433.553a.31.31 0 0 1 .311.31v12.686a.31.31 0 0 1-.31.311h-1.797a.31.31 0 0 1-.311-.311v-12.685a.31.31 0 0 1 .31-.311Zm-56.242 1.9c-2.487 0-4.525 2.178-4.525 4.805 0 1.313.483 2.523 1.381 3.353.864.83 2.004 1.279 3.283 1.279 2.487 0 4.352-2.04 4.352-4.701 0-2.661-1.97-4.735-4.49-4.735Zm31.748 0c-2.487 0-4.49 2.178-4.525 4.805 0 1.313.484 2.523 1.382 3.353.863.83 2.038 1.279 3.282 1.279 2.488 0 4.387-2.04 4.387-4.701 0-2.661-2.004-4.735-4.526-4.735Zm-15.822-.034c-.207 0-.38 0-.587.035-2.142.31-3.87 2.073-4.077 4.148v.068s.83-.31 1.866-.449c.345-.034.69-.069 1.105-.069.553 0 1.106.07 1.728.104h.035c.656.069 1.346.103 1.968.103.38 0 .691-.034.968-.068a8.42 8.42 0 0 0 1.45-.277h.07l-.034-.07c-.588-2.004-2.523-3.525-4.492-3.525Zm39.418-6.429c.898 0 1.624.726 1.624 1.625 0 .898-.726 1.624-1.624 1.624-.864 0-1.589-.726-1.589-1.624 0-.899.725-1.625 1.589-1.625Zm-60.146-78.84c16.41-16.417 43.01-16.417 59.386 0 16.41 16.418 16.41 43.032 0 59.416-16.41 16.418-43.01 16.418-59.386 0-16.41-16.418-16.41-43.033 0-59.416Zm62.391 8.503a27.05 27.05 0 0 1 1.21 8.053c0 9.056-4.457 17.006-11.194 21.983-11.78 8.675-28.915 8.675-52.58 16.141 7.152 8.537 17.895 13.999 29.883 13.999 21.523 0 38.97-17.455 38.97-38.988-.035-7.812-2.316-15.07-6.289-21.188Zm-32.68-17.8c-21.523.034-38.97 17.489-38.97 38.988 0 8.675 2.833 16.66 7.601 23.123 26.186-7.604 46.88-28.17 54.722-54.3-6.53-4.908-14.613-7.812-23.354-7.812Z" fill="#161616" fill-rule="evenodd"/></svg>