<?xml version="1.0" encoding="UTF-8"?>
<!DOCTYPE svg PUBLIC "-//W3C//DTD SVG 1.1//EN" "http://www.w3.org/Graphics/SVG/1.1/DTD/svg11.dtd">
<!-- Creator: CorelDRAW 2021.5 -->
<svg xmlns="http://www.w3.org/2000/svg" xml:space="preserve" width="100mm" height="100mm" version="1.1" style="shape-rendering:geometricPrecision; text-rendering:geometricPrecision; image-rendering:optimizeQuality; fill-rule:evenodd; clip-rule:evenodd"
viewBox="0 0 10000 10000"
 xmlns:xlink="http://www.w3.org/1999/xlink"
 xmlns:xodm="http://www.corel.com/coreldraw/odm/2003">
 <defs>
  <style type="text/css">
   <![CDATA[
    .fil0 {fill:#000000;fill-rule:nonzero}
   ]]>
  </style>
 </defs>
 <g id="Capa_x0020_1">
  <metadata id="CorelCorpID_0Corel-Layer"/>
  <g id="_2542632824128">
   <path class="fil0" d="M8898.77 5697.12l-1352.66 0c-325.16,1012.03 -1343.19,1750.74 -2549.46,1750.74 -1206.65,0 -2224.89,-738.71 -2550.18,-1750.74l-1351.59 0 0 -1386.42 1351.45 0c325.17,-1012.19 1343.53,-1751.16 2550.32,-1751.16 1206.46,0 2224.57,738.97 2549.59,1751.16l1352.53 0 0 1386.42zm-1251.42 -1504.78c-369.52,-1020.71 -1416.19,-1756.88 -2650.7,-1756.88 -1234.69,0 -2281.37,736.17 -2650.89,1756.88l-1375.03 0 0 1622.86 1375.1 0c369.58,1020.64 1416.26,1756.94 2650.82,1756.94 1234.44,0 2281.05,-736.3 2650.63,-1756.94l1374.37 0 0 -1622.86 -1374.3 0z"/>
   <path class="fil0" d="M2065.26 4800.9c-5.72,-32.71 -25.04,-52.35 -50.02,-63.88 -24.84,-11.79 -55.54,-17.18 -89.51,-17.18 -76.53,0 -109.57,19.71 -109.57,53.75 0,140.27 606.7,53.22 606.7,394.09 0,217.33 -203.48,322.9 -493.8,322.9 -279.01,0 -460.97,-144.4 -468.3,-313.64l332.09 0c6.53,34.03 26.91,58.48 56.35,74.19 28.04,15.66 65.27,23.25 98.37,23.25 86.72,0 144.27,-24.44 144.27,-68.73 0,-142.2 -607.36,-44.16 -607.36,-402.69 0,-198.74 193.61,-299.05 457.7,-299.05 293.59,0 426.92,133.2 451.64,296.99l-328.56 0z"/>
   <path class="fil0" d="M2065.26 4800.9c-5.72,-32.71 -25.04,-52.35 -50.02,-63.88 -24.84,-11.79 -55.54,-17.18 -89.51,-17.18 -76.53,0 -109.57,19.71 -109.57,53.75 0,140.27 606.7,53.22 606.7,394.09 0,217.33 -203.48,322.9 -493.8,322.9 -279.01,0 -460.97,-144.4 -468.3,-313.64l332.09 0c6.53,34.03 26.91,58.48 56.35,74.19 28.04,15.66 65.27,23.25 98.37,23.25 86.72,0 144.27,-24.44 144.27,-68.73 0,-142.2 -607.36,-44.16 -607.36,-402.69 0,-198.74 193.61,-299.05 457.7,-299.05 293.59,0 426.92,133.2 451.64,296.99l-328.56 0z"/>
   <path class="fil0" d="M3001.96 4811.06l-107.16 335.96 218.79 0 -111.63 -335.96zm-551.28 654.85l378.38 -937.31 352.26 0 378.38 937.31 -344.74 0 -41.03 -123.61 -344.87 0 -39.37 123.61 -339.01 0z"/>
   <path class="fil0" d="M3001.96 4811.06l-107.16 335.96 218.79 0 -111.63 -335.96zm-551.28 654.85l378.38 -937.31 352.26 0 378.38 937.31 -344.74 0 -41.03 -123.61 -344.87 0 -39.37 123.61 -339.01 0z"/>
   <path class="fil0" d="M3974.19 4933.74l137.41 0c106.23,0 162.97,-23.78 162.97,-88.91 0,-66.4 -58.08,-97.71 -139.06,-97.71l-161.32 0 0 186.62zm0 205.61l0 326.56 -346.01 0 0 -937.32 498.79 0c352.2,0 467.03,85.12 467.03,266.55 0,108.17 -53.41,199.55 -176.16,229.45 111.29,36.7 178.23,60.14 178.23,249.17 0,122.08 -4.2,163.44 36.96,163.44l0 28.71 -350.67 0c-8.52,-21.05 -17.64,-80.86 -17.64,-164.05 0,-122.55 -23.25,-162.51 -184.1,-162.51l-106.43 0z"/>
   <path class="fil0" d="M3974.19 4933.74l137.41 0c106.23,0 162.97,-23.78 162.97,-88.91 0,-66.4 -58.08,-97.71 -139.06,-97.71l-161.32 0 0 186.62zm0 205.61l0 326.56 -346.01 0 0 -937.32 498.79 0c352.2,0 467.03,85.12 467.03,266.55 0,108.17 -53.41,199.55 -176.16,229.45 111.29,36.7 178.23,60.14 178.23,249.17 0,122.08 -4.2,163.44 36.96,163.44l0 28.71 -350.67 0c-8.52,-21.05 -17.64,-80.86 -17.64,-164.05 0,-122.55 -23.25,-162.51 -184.1,-162.51l-106.43 0z"/>
   <path class="fil0" d="M4745.79 4528.61l346.08 0 0 561.4c0,92.12 20.77,171.31 162.98,171.31 124.54,0 160.91,-70.07 160.91,-171.31l0 -561.4 346.54 0 0 529.7c0,300.71 -156.99,432.26 -507.45,432.26 -327.23,0 -509.06,-110.5 -509.06,-433.66l0 -528.3z"/>
   <path class="fil0" d="M4745.79 4528.61l346.08 0 0 561.4c0,92.12 20.77,171.31 162.98,171.31 124.54,0 160.91,-70.07 160.91,-171.31l0 -561.4 346.54 0 0 529.7c0,300.71 -156.99,432.26 -507.45,432.26 -327.23,0 -509.06,-110.5 -509.06,-433.66l0 -528.3z"/>
   <path class="fil0" d="M6280.34 5074.16l0 172.97 150.86 0c85.19,0 149.13,-15.39 149.13,-85.66 0,-82.12 -80.13,-87.31 -189.69,-87.31l-110.3 0zm0 -327.03l0 156.19 143.4 0c69,0 119.09,-26.91 119.09,-81.39 0,-73.4 -67.87,-74.8 -141.27,-74.8l-121.22 0zm-346.67 718.79l0 -937.32 504.59 0c237.97,0 427.19,49.43 427.19,235.85 0,96.11 -70.53,166.5 -137.87,204.27 114.09,25.98 175.37,113.43 175.37,214.6 0,209.67 -180.63,282.6 -454.1,282.6l-515.18 0z"/>
   <path class="fil0" d="M6280.34 5074.16l0 172.97 150.86 0c85.19,0 149.13,-15.39 149.13,-85.66 0,-82.12 -80.13,-87.31 -189.69,-87.31l-110.3 0zm0 -327.03l0 156.19 143.4 0c69,0 119.09,-26.91 119.09,-81.39 0,-73.4 -67.87,-74.8 -141.27,-74.8l-121.22 0zm-346.67 718.79l0 -937.32 504.59 0c237.97,0 427.19,49.43 427.19,235.85 0,96.11 -70.53,166.5 -137.87,204.27 114.09,25.98 175.37,113.43 175.37,214.6 0,209.67 -180.63,282.6 -454.1,282.6l-515.18 0z"/>
   <path class="fil0" d="M7384.25 5074.16l0 172.97 150.85 0c85.52,0 149.73,-15.39 149.73,-85.66 0,-82.12 -80.59,-87.31 -190.29,-87.31l-110.29 0zm0 -327.03l0 156.19 144.12 0c68.28,0 118.83,-26.91 118.83,-81.39 0,-73.4 -67.61,-74.8 -140.94,-74.8l-122.01 0zm-345.88 718.79l0 -937.32 504.39 0c237.58,0 426.6,49.43 426.6,235.85 0,96.11 -69.87,166.5 -137.87,204.27 114.69,25.98 175.7,113.43 175.7,214.6 0,209.67 -180.17,282.6 -453.97,282.6l-514.85 0z"/>
   <path class="fil0" d="M7384.25 5074.16l0 172.97 150.85 0c85.52,0 149.73,-15.39 149.73,-85.66 0,-82.12 -80.59,-87.31 -190.29,-87.31l-110.29 0zm0 -327.03l0 156.19 144.12 0c68.28,0 118.83,-26.91 118.83,-81.39 0,-73.4 -67.61,-74.8 -140.94,-74.8l-122.01 0zm-345.88 718.79l0 -937.32 504.39 0c237.58,0 426.6,49.43 426.6,235.85 0,96.11 -69.87,166.5 -137.87,204.27 114.69,25.98 175.7,113.43 175.7,214.6 0,209.67 -180.17,282.6 -453.97,282.6l-514.85 0z"/>
   <polygon class="fil0" points="8148.37,4528.63 8494.71,4528.63 8494.71,5465.94 8148.37,5465.94 "/>
   <polygon class="fil0" points="8148.37,4528.63 8494.71,4528.63 8494.71,5465.94 8148.37,5465.94 "/>
   <path class="fil0" d="M4215.57 3654.09c98.03,-157.26 214.53,-286.67 343.07,-377.65 -236.44,58.95 -454.1,164.58 -643.46,306.44 95.11,27.65 195.49,51.16 300.39,71.21z"/>
   <path class="fil0" d="M4315.15 3671.68c198.75,31.91 412.34,50.82 634.8,52.95l0 -499.73c-237.91,18.25 -460.17,180.3 -634.8,446.78z"/>
   <path class="fil0" d="M3826.71 3654.09c-35.97,30.64 -70.8,63.07 -104.77,96.64 -159.85,159.85 -289.46,349.6 -380.44,559.93l609.76 0c51.15,-211.99 124.22,-405.21 215.39,-571.26 -119.28,-23.44 -233.11,-52.21 -339.94,-85.31z"/>
   <path class="fil0" d="M4262.92 3756.93c-90.05,158.12 -163.58,345.94 -215.73,553.74l902.74 0 0 -493.33c-241.3,-2.4 -472.95,-23.38 -687.01,-60.41z"/>
   <path class="fil0" d="M5043.04 3724.65c222.25,-2.13 435.72,-21.11 634.53,-52.95 -174.57,-266.48 -397.16,-428.53 -634.53,-446.84l0 499.79z"/>
   <path class="fil0" d="M6166.1 3654.09c-106.71,33.1 -220.46,61.87 -339.81,85.31 90.84,166.05 163.9,359.27 215.12,571.26l609.63 0c-90.92,-210.33 -220.59,-400.08 -380.31,-559.93 -33.5,-33.57 -68.4,-66 -104.63,-96.64z"/>
   <path class="fil0" d="M4996.63 2992.19c-867.78,0 -1606.75,549.01 -1889.01,1318.49l133.27 0c282.07,-692.61 961.36,-1180.95 1755.74,-1180.95 793.78,0 1473.21,488.34 1755.28,1180.95l133.46 0c-282.26,-769.48 -1021.23,-1318.49 -1888.74,-1318.49z"/>
   <path class="fil0" d="M5776.91 3654.09c105.43,-20.05 205.87,-43.56 300.72,-71.21 -188.9,-141.86 -407.42,-247.49 -643.59,-306.44 129.28,90.52 245.03,220.39 342.87,377.65z"/>
   <path class="fil0" d="M5043.04 3817.33l0 493.33 902.81 0c-52.02,-207.8 -125.61,-395.62 -216.06,-553.74 -214.8,37.03 -445.91,58.01 -686.75,60.41z"/>
   <path class="fil0" d="M5781.57 6389.47c-98.57,160.51 -216.47,292.32 -347.54,384.44 239.64,-59.68 460.56,-167.71 650.79,-312.65 -95.92,-27.37 -197.09,-51.94 -303.25,-71.79z"/>
   <path class="fil0" d="M6172.11 6390.79c34.44,-29.17 67.2,-59.34 98.57,-91.45 170.51,-170.44 306.51,-374.91 397.96,-602.23l-617.48 0c-50.82,225.72 -125.95,431.46 -221.26,607.09 120.82,24.12 235.05,52.82 342.21,86.59z"/>
   <path class="fil0" d="M5681.89 6371.78c-199.54,-32.63 -414.81,-51.48 -638.86,-53.61l0 507.58c240.17,-18.84 464.02,-183.16 638.86,-453.97z"/>
   <path class="fil0" d="M5733.83 6286.06c94.64,-167.1 170.5,-367.25 222.12,-588.97l-912.93 0 0 528.5c242.36,1.86 475.08,23.44 690.81,60.47z"/>
   <path class="fil0" d="M4949.93 6318.17c-223.93,2.14 -439.32,20.98 -639.8,53.62 175.51,270.74 400.29,435.06 639.8,453.97l0 -507.59z"/>
   <path class="fil0" d="M3820.3 6390.79c107.9,-33.77 222.26,-62.47 342.28,-86.59 -95.38,-175.63 -170.45,-381.37 -221.13,-607.09l-617.55 0c91.45,227.32 227.45,431.79 398.03,602.23 31.77,32.11 65.27,62.28 98.37,91.45z"/>
   <path class="fil0" d="M6768.72 5697.12c-271.14,715.05 -962.09,1223.24 -1772.06,1223.24 -810.63,0 -1501.51,-508.19 -1772.59,-1223.24l-116.29 0c282.34,769.4 1021.24,1318.41 1888.88,1318.41 867.38,0 1606.15,-549.01 1888.61,-1318.41l-116.55 0z"/>
   <path class="fil0" d="M4210.95 6389.47c-105.97,19.85 -207.01,44.42 -303.25,71.79 190.95,144.94 411.61,252.97 650.91,312.65 -131.47,-92.12 -249.16,-223.93 -347.66,-384.44z"/>
   <path class="fil0" d="M4949.93 6225.57l0 -528.43 -913.07 0c51.75,221.73 127.68,421.8 222.25,588.91 215.26,-37.03 447.71,-58.61 690.82,-60.48z"/>
  </g>
 </g>
</svg>
