<svg width="240" height="140" xmlns="http://www.w3.org/2000/svg"><title>Partners / Rexona</title><defs><path id="a" d="M0 0h20.077v27.207H0z"/><path id="b" d="M0 0h62.943v78.707H0z"/></defs><g fill="none" fill-rule="evenodd"><path d="M128.87 105.456c5.182 0 8.121 3.57 8.121 9.852 0 0 .012.206.012.942v.149c-.002.608-.012.748-.012.748 0 6.3-2.986 9.853-8.15 9.853-5.182 0-8.12-3.567-8.12-9.853 0 0-.011-.117-.014-.61v-.441c.001-.607.014-.788.014-.788 0-6.3 2.983-9.852 8.149-9.852Zm-32.733-.015c5.47 0 8.255 3.476 8.153 9.867l-.031 2.199H92.325l-.004.632c.073 2.912 1.272 4.75 4.073 5.012 2.918.272 5.157-.381 7.15-1.607l-.005 3.691c-1.191.768-3.85 1.983-7.678 1.71-4.662-.329-8.221-3.43-8.221-9.838l-.001-.01c-.002-.046-.01-.248-.01-.878v-.16c.002-.6.01-.762.01-.762 0-6.36 3.182-9.856 8.498-9.856Zm61.687 1.23c1.42-.68 3.707-1.35 6.718-1.178 4.62.266 8.458 3.097 8.458 9.534v.026c-.004.142-.019.888-.021 2.833v.893c-.006 2.6-.054 7.368-.058 7.827v.036c-1.834 0-4.422.046-8.221.046-4.603 0-8.123-2.11-8.123-6.824 0-4.55 3.52-6.943 7.936-7.112l.22-.01a23.062 23.062 0 0 1 3.377.147c-.254-2.266-1.84-3.393-4.101-3.601-2.456-.227-4.436.194-6.187 1.068Zm-10.996-1.215c5.123 0 8.306 2.975 8.306 8.27v.818l.001.179v.857l.001.245v.523l.001.277v.878l.001.306v.63l.001.32v.652l.001.33v.66l.001.33v.655l.001.323v.637l.001.31v.896l.001.283v.793l.001.243v.845l.001.175v.745h-4.694v-12.859c0-3.046-1.303-4.558-3.447-4.558s-3.04.492-3.465.69l.003 16.727h-4.692v-19.045c.142-.069.293-.145.456-.227l.34-.17c1.48-.732 3.75-1.738 7.181-1.738Zm-30.758.412 5.258.003-6.055 10.302 6.055 10.463h-5.217l-3.484-6.359-3.485 6.359h-5.217L110 116.182l-6.075-10.31h5.217l3.451 6.387 3.477-6.391ZM76.205 99.38c8.208 0 10.489 4.686 10.489 8.675 0 2.9-1.234 5.771-4.476 7.353 0 0-.37.181-.65.29l6.509 10.89h-5.692l-7.954-13.32h1.32c4.061 0 5.87-2.184 5.87-5.104 0-2.849-1.794-5.018-5.873-5.018h-2.725v23.43l-5.023.011V99.38Zm92.02 17.315s-1.591-.387-3.66-.2c-1.839.162-3.305 1.269-3.305 3.369 0 2.172 1.28 3.36 3.549 3.38.977.009 1.688.006 2.375-.005l.514-.01.527-.011Zm-39.355-7.462c-2.267 0-3.4 1.725-3.468 4.505 0 0-.05.564-.05 2.344v.247c.005 1.61.05 2.387.05 2.387.068 2.765 1.18 4.507 3.439 4.507 2.267 0 3.4-1.725 3.47-4.507 0 0 .046-1.32.046-2.634v-.206c-.005-1.22-.047-2.138-.047-2.138-.068-2.766-1.18-4.505-3.44-4.505Zm-32.733.016c-2.405 0-3.743 1.665-3.812 4.497v.21h7.409l-.002-.147c0-2.82-1.115-4.56-3.595-4.56Zm64.482-96.182s.205-.158.416.01c.2.16.114.407.073.455-24.336 35.744-39.678 77.549-39.698 77.599 0 0-.185.565-.887.576-.659.012-.906-.576-.906-.576s-10.65-20.68-20.893-38.157c-.176-.32-.324-.577-.455-.817 0 0-.141-.23.05-.421a.333.333 0 0 1 .405-.059c.22.131.53.327.87.555 2.32 1.561 16.326 11.317 16.853 11.69.362.25.901.752 1.5 0 33.07-44.841 42.592-50.806 42.672-50.855Z" fill="#161616"/></g></svg>