<svg xmlns="http://www.w3.org/2000/svg" width="240" height="140"><path fill="#161616" fill-rule="evenodd" d="M230 97.255v2.046H10v-2.046h220Zm-41.326-47.532L209.52 76.02V62.753c0-9.842-.862-10.424-3.941-10.725l-.905-.065V49.81h12.537v2.133l-1.1.172c-2.845.348-2.987 2.387-2.994 9.403V89.33c-.764.342-2.41 1-3.624 1.439l-.253.09-24.163-30.346V76.86c0 9.476.539 9.97 4.155 10.446l.71.107v2.219h-12.814v-2.219l1.292-.237c2.844-.348 2.986-2.386 2.994-9.403v-1.15l.064-13.827-.021-7.064c0-2.197-1.12-2.95-1.12-2.95-.644-.625-3.142-.797-3.142-.797v-2.24l11.48-.022Zm-63.537-.905c5.105 0 8.981 1.184 11.523 2.455l.021 8.464-2.8-.021c-.71-3.059-1.895-7.818-9.325-7.818-3.898 0-6.827 1.701-6.827 5.448 0 5.988 12.06 7.388 18.436 13.332 2.089 1.938 3.36 4.697 3.36 8.014.02 8.464-7.521 11.764-16.422 11.844l-.335.001c-9.088 0-12.34-1.875-12.34-1.875-.431-3.145-.582-6.785-1.013-10.77l2.975.022c.73 3.748 2.84 9.52 11.307 9.541 4.283 0 7.363-2.024 7.363-6.052 0-6.978-13.568-7.47-19.082-14.365-1.486-1.852-2.28-4.113-2.046-7.409.582-8.033 6.397-10.811 15.205-10.811Zm94.182 35.838.168.006c1.386.087 2.483 1.257 2.483 2.665 0 1.464-1.187 2.67-2.651 2.67a2.672 2.672 0 0 1-2.67-2.67 2.685 2.685 0 0 1 2.67-2.67ZM72.909 49.831v2.089l-.968.086c-3.095.395-3.205 1.09-3.21 6.507v21.994c.005 5.411.117 6.427 3.21 6.842l.969.086v2.218H55.572v-2.218l1.077-.086c3.093-.415 3.205-1.41 3.21-6.84V58.53c-.005-5.456-.115-6.15-3.21-6.545l-1.077-.087v-2.067H72.91Zm21.54-.022v2.11l-.905.043c-3.034.408-3.2 1.161-3.208 6.193v27.537s.019.32.299.428c.515.183 1.728.403 3.634.397l.292-.003c.493-.007 1.03-.03 1.61-.07l.04-.001c.473-.011 4.59-.234 6.659-4.393l.008-.012c.078-.123.734-1.196 1.562-4.123h2.907l-1.744 11.694-10.575.024H77.281v-2.24l.134.002.14-.002c.615-.018 1.342-.131 1.342-.131 2.543-.539 2.543-1.702 2.584-7.237V58.43c-.004-5.298-.116-6.073-3.209-6.488l-1.098-.022v-2.11h17.275Zm-58.257.043.554.002c1.02.006 2.058.028 3.096.08l.565.032c7.157.445 14.067 2.464 14.067 10.612 0 1.594-.086 3.015-.428 4.243-2.04 7.342-9.785 8.725-17.717 8.765h-.414l-.07.001-.214.001h-.14l-3.162.016h-.19l-.335.002h-.073v7.76c.009 5.376.177 5.627 3.274 5.916l.926.067v2.283H18.615l.022-2.283h1.12c2.917-.266 3.129-.589 3.143-5.695l.001-22.648c0-5.901-.258-6.505-2.972-6.892l-1.292-.108v-2.154h17.555Zm136.005-.021.086 9.778-2.565-.044c-.883-5.987-4.327-6.288-11.221-6.353h-3.769v13.633h13.46l-.859 3.661h-12.577v14.84c.181.625 2.408.873 5.294.866l.29-.002.295-.003c7.472-.108 9.046-3.166 10.336-7.646l2.651-.021-1.014 11.091h-30.97v-2.24l1.035-.172c3.052-.512 3.202-.381 3.209-6.217v-22.38c-.004-5.305-.116-5.909-3.209-6.573l-1.036-.065v-2.153h30.564Zm47.122 35.278-.166.005c-1.205.078-2.074.998-2.074 2.234 0 1.314.95 2.24 2.24 2.24l.167-.005c1.206-.078 2.053-1 2.053-2.235 0-1.316-.926-2.24-2.22-2.24Zm.325.689c.773 0 1.053.28 1.053.84 0 .603-.409.818-.947.861l.904 1.357h-.43l-.86-1.357h-.624v1.357h-.39v-3.058Zm-.086.366h-.842v.99h.538c.431 0 1.015.065 1.015-.516 0-.41-.345-.474-.711-.474ZM31.322 70.68v2.927h.121l.288-.001V70.69l-.117-.001a5.702 5.702 0 0 1-.274-.007l-.018-.002Zm3.747-17.727c-1.163 0-2.369.064-3.338.366v17.37h.177c1.212 0 3.806-.05 4.03-.054h.015c4.975-.474 9.454-2.11 9.454-9.283 0-6.547-4.609-8.4-10.338-8.4ZM230 40.699v2.046H10v-2.046h220Z"/></svg>