<?xml version="1.0" encoding="UTF-8"?>
<svg width="200px" height="56px" viewBox="0 0 200 56" version="1.1" xmlns="http://www.w3.org/2000/svg" xmlns:xlink="http://www.w3.org/1999/xlink">
    <title>assistcard</title>
    <g id="Symbols" stroke="none" stroke-width="1" fill="none" fill-rule="evenodd">
        <g id="assistcard" fill="#161616" fill-rule="nonzero">
            <path d="M96.8004494,31.8903148 C97.8446334,31.8914634 98.0667881,32.2291789 97.7269548,33.2124593 C97.3503825,34.304291 96.8767971,35.3662568 96.5622217,36.4741703 C96.2143518,37.6986758 95.4726884,38.062237 94.2494031,38.052473 C88.3976102,38.0059509 82.5458172,38.0628114 76.6951724,38.0070997 C75.4380185,37.9956128 74.8180522,38.4338388 74.4225368,39.6204377 C73.4805324,42.4479432 72.4099425,45.231224 71.3990531,48.0357556 C70.8163995,49.6513909 70.9679468,49.8684936 72.6475961,49.869068 C78.3874507,49.8713654 84.1273052,49.869068 89.8665859,49.870791 C91.5554198,49.8713654 91.6478407,50.0057624 91.0818346,51.590383 C90.7310945,52.5730891 90.3240979,53.5391391 90.0336323,54.5390754 C89.7242232,55.6033386 89.104831,56.013996 87.9917618,55.9996373 C84.3023884,55.9525411 80.6124409,55.9818327 76.9224933,55.9818327 C73.3071715,55.9812583 69.6918494,55.9921708 66.0765275,55.9783865 C62.4066716,55.9651766 60.3039525,53.065878 61.5071465,49.6106123 C62.7315798,46.0915942 63.9606055,42.5708533 65.3239574,39.1046751 C67.1373588,34.4961226 70.6740368,32.0442394 75.5574194,31.9339649 C82.6353679,31.7742968 89.7190568,31.8816996 96.8004494,31.8903148 Z M173.247459,31.8798863 C180.517712,31.9115656 187.787965,31.8828481 195.058218,31.9012274 C198.792941,31.9115656 200.880161,34.8229256 199.643098,38.347687 C197.939913,43.2009108 196.181046,48.0346068 194.409549,52.8631337 C193.651239,54.930205 192.074917,55.9789609 189.852797,55.9847044 C185.677209,55.9950426 181.501622,55.9875761 177.32546,55.9881503 L164.686758,55.9870017 L164.686758,55.9870017 C163.222375,55.985853 163.063939,55.7670273 163.543265,54.4391392 C166.074794,47.4269486 168.625266,40.4222247 171.120056,33.3979729 C171.506961,32.3101616 172.099374,31.8748073 173.247459,31.8798863 Z M162.146561,31.9127717 C165.21482,31.9300021 167.184361,34.5335126 166.612041,37.548829 C165.938688,41.0954156 163.92839,43.461147 160.365306,44.6425768 C162.713141,45.9831003 163.025421,46.8497884 162.162634,49.2333244 C161.503059,51.0562986 160.82454,52.8718065 160.187353,54.7022472 C159.875073,55.59995 159.3194,56.0025665 158.35099,55.9864849 C156.039319,55.9485781 153.727074,55.9824643 151.415978,55.9709774 C150.214506,55.9652341 149.997518,55.6619793 150.39533,54.5563631 C151.177176,52.3807405 151.976818,50.2131587 152.765553,48.040982 C153.212158,46.810733 153.049704,46.5557232 151.779347,46.5522773 C148.871246,46.5430877 145.963145,46.543662 143.055044,46.5517029 C141.56081,46.5557232 141.031543,46.9462786 140.505145,48.3970765 C139.754871,50.464148 138.981635,52.5237528 138.274415,54.6057569 C137.954099,55.5482589 137.425979,56.0048639 136.397869,55.987059 C134.049459,55.9462805 131.699902,55.9853361 129.350345,55.9692544 C128.216364,55.9623624 128.008806,55.6688714 128.393989,54.5965675 C130.965701,47.4402161 133.554634,40.2901825 136.120032,33.1315339 C136.428293,32.2723123 136.966745,31.8897552 137.873159,31.8909465 L154.055427,31.8897552 C156.752472,31.8918399 159.449516,31.89803 162.146561,31.9127717 Z M126.742812,31.9008251 C130.103833,31.9324143 132.190479,34.9465822 131.068799,38.1296078 C129.111887,43.6823851 127.070591,49.2052964 125.084402,54.7483097 C124.777289,55.6063827 124.245152,55.9917688 123.332424,55.9825792 C120.984588,55.9578823 118.636179,55.9831536 116.287769,55.970518 C115.133369,55.9642002 114.935899,55.6534789 115.340599,54.5105303 C116.124167,52.2981496 116.930123,50.0926608 117.70623,47.8774084 C118.093134,46.7735152 117.936995,46.5696223 116.740115,46.5604329 C115.212013,46.5495204 113.683337,46.5581356 112.154661,46.5581356 C110.738497,46.5581356 109.321185,46.5920219 107.905596,46.5477972 C106.639257,46.5087418 105.886113,47.0813647 105.474524,48.2536049 C104.72138,50.3976386 103.906239,52.5204215 103.164576,54.6690499 C102.853444,55.5684759 102.331065,55.9975123 101.357489,55.9854509 C99.0096535,55.9544364 96.6612442,55.9877483 94.3128347,55.9779845 C93.1102151,55.9733898 92.9018374,55.6804732 93.312278,54.5507347 C95.1572519,49.4717929 96.9873005,44.3876818 98.8759015,39.3253961 C100.583105,34.7484328 104.40623,31.9812337 109.298224,31.9100148 C115.11213,31.8255859 120.928332,31.847411 126.742812,31.9008251 Z M180.239875,38.0461553 C179.239319,38.0065253 178.653221,38.3884655 178.31511,39.3493465 C177.241076,42.4037185 176.108489,45.4379886 175.010345,48.483171 C174.611959,49.5893616 174.832392,49.9041031 176.018364,49.9092722 C178.735309,49.9207592 181.453402,49.8926161 184.170921,49.9236309 C185.141627,49.9351179 185.665155,49.508953 185.980304,48.6141219 C187.068115,45.525289 188.204146,42.4531123 189.308605,39.3700228 C189.663363,38.3787015 189.454985,38.0788931 188.392432,38.0633856 C186.978565,38.0427092 185.563549,38.0582165 184.148533,38.0582165 C182.845456,38.0582165 181.54123,38.0961233 180.239875,38.0461553 Z M110.355036,38.0693014 C109.313149,38.1652173 108.422234,39.2019118 108.55369,40.1444135 C108.70983,41.2546244 109.538748,41.3982108 110.471567,41.3827036 C111.737906,41.3608784 113.004818,41.3769601 114.271157,41.3775345 C115.053577,41.3775345 115.836572,41.3918932 116.618418,41.3735139 C117.471446,41.353412 118.341695,41.3959135 119.172335,41.2408401 C120.126968,41.0616441 120.837633,40.0232266 120.702733,39.1737688 C120.531094,38.1014648 119.732027,38.0187591 118.846853,38.0296716 C116.835406,38.0526454 114.823386,38.0354149 112.81194,38.0377125 C111.992207,38.038861 111.167881,37.9934878 110.355036,38.0693014 Z M154.042224,38.0266848 C152.701834,38.0450641 151.360296,38.0318542 150.019906,38.0318542 L150.019906,38.0444897 C148.52969,38.0444897 147.038327,37.9979676 145.551556,38.059997 C144.43045,38.106519 143.534369,39.1265575 143.649752,40.1402784 C143.78006,41.2866729 144.633088,41.3831631 145.550408,41.3802914 L150.615465,41.381057 C151.459669,41.379015 152.303831,41.3732076 153.147865,41.3596148 C153.72076,41.349851 154.349911,41.2298127 154.847032,40.9633161 C155.597306,40.5601252 155.923363,39.8106037 155.722448,38.9605715 C155.515792,38.089863 154.795942,38.0169211 154.042224,38.0266848 Z M33.6174463,0.0654574512 C36.9405805,0.0913030219 39.0616686,3.02621116 37.9681172,6.18109382 C36.0152233,11.8154282 33.9297256,17.4038149 31.9119649,23.0151754 C31.6140368,23.8433825 31.0509007,24.1483602 30.1995951,24.139745 C27.8511856,24.1167711 25.5022023,24.141468 23.153793,24.1276836 C22.029243,24.1207916 21.8036442,23.8112191 22.1721797,22.7641864 C22.9626366,20.5133242 23.7858143,18.2745235 24.5820117,16.0259588 C24.9671944,14.9392962 24.7926853,14.6917531 23.6262302,14.6785431 C22.1348669,14.6607384 20.6440776,14.6739483 19.1521402,14.6745227 C17.6980896,14.675097 16.2440391,14.6871583 14.7899885,14.6710766 C13.5500559,14.6572923 12.7613211,15.2167053 12.3497323,16.394689 C11.6120872,18.5059849 10.7998166,20.5914353 10.0880035,22.7113464 C9.75505859,23.701519 9.21029193,24.1667392 8.13568369,24.146637 C5.82458714,24.1035611 3.5123425,24.1518061 1.20124594,24.1426167 C-0.00883641308,24.138022 -0.217788014,23.8485516 0.190356459,22.7245564 C2.08584598,17.5037511 3.89293291,12.2484851 5.92734081,7.0833914 C7.70629963,2.56730868 11.2647913,0.221105221 16.0574752,0.0941747519 C21.907546,-0.0603243259 27.7645052,0.0206584621 33.6174463,0.0654574512 Z M96.8687606,0.0195672047 C100.821046,0.0195672047 104.773905,0.0172698206 108.725616,0.0212902427 C110.097578,0.0230132807 110.270939,0.266535992 109.820316,1.52779984 C109.431689,2.61618554 109.007471,3.69250996 108.653861,4.79238257 C108.345026,5.75441215 107.750317,6.1145271 106.737131,6.10993233 C100.585688,6.07891765 94.4325227,6.06628205 88.2810795,6.13118314 C87.5422862,6.1380753 86.681222,6.49244678 86.11866,6.97087702 C85.7598832,7.27585474 85.623261,8.19193664 85.8063807,8.67266425 C85.9527616,9.0563274 86.7323117,9.40782716 87.2345994,9.41414495 C91.6708025,9.4710052 96.1087279,9.44343661 100.545505,9.44860572 C104.175752,9.45320049 106.235418,12.1175916 105.347374,15.6486709 C104.101701,20.5978105 99.7831761,24.0496302 94.5473313,24.0927061 C86.8293251,24.1558842 79.1101708,24.1145312 71.3921644,24.1064904 C70.2090621,24.105916 70.0041289,23.7997895 70.3870155,22.6671792 C70.7572731,21.5719014 71.2073226,20.5024691 71.5305087,19.39513 C71.8439362,18.324549 72.4748093,17.9362911 73.5804158,17.9426089 C79.7324332,17.977644 85.8850246,17.9512241 92.0376159,17.9673058 C93.0467833,17.9701775 93.8877561,17.73527 94.3728222,16.7755378 C94.9531796,15.6279945 94.3883215,14.6343759 93.097299,14.6188685 C90.524439,14.5872795 87.9515789,14.6085303 85.3781446,14.607956 C83.3655505,14.6073816 81.351234,14.6280581 79.3380658,14.6027869 C76.221013,14.563157 74.2353986,12.1658367 74.7376863,9.08332164 C75.5562714,4.06124011 80.251942,0.0408180071 85.3471464,0.0224389347 C89.187493,0.0086546304 93.028414,0.0195672047 96.8687606,0.0195672047 Z M154.009504,0.0208882005 C155.539902,0.0208882005 155.680542,0.219037575 155.173089,1.63824658 C154.833829,2.58534315 154.430277,3.514635 154.162199,4.48125935 C153.832698,5.67245297 153.172549,6.13422718 151.902766,6.11986853 C146.795507,6.05841351 141.686526,6.06702869 136.57984,6.12790936 C135.90534,6.13595022 135.076996,6.43748187 134.613743,6.89810737 C134.238319,7.27200664 134.088494,8.15535081 134.249226,8.68834389 C134.359442,9.05190493 135.174583,9.40799945 135.679167,9.41431727 C140.077483,9.47060317 144.477522,9.4447576 148.876986,9.44820367 C152.662799,9.45164976 154.706966,12.1148922 153.731667,15.7688816 C152.402758,20.7461641 148.139341,24.0400385 142.850684,24.1014934 C139.085537,24.1462925 135.319816,24.1106831 131.553521,24.1112575 L120.033055,24.1106831 L120.033055,24.1106831 C118.552024,24.1083857 118.3867,23.8677346 118.879803,22.4554179 L119.622444,20.4241049 C119.742717,20.0845175 119.857015,19.7431645 119.959003,19.398174 C120.271857,18.3396543 120.888953,17.934166 122.003744,17.9410582 C128.118449,17.978965 134.233153,17.9726472 140.347283,17.9381865 C140.983323,17.9347404 141.805926,17.8290607 142.201442,17.4316133 C142.650918,16.9807517 142.95516,16.1106174 142.859295,15.4943442 C142.803039,15.1273371 141.859312,14.655799 141.307657,14.6466095 C136.947228,14.5771136 132.583928,14.6115743 128.221776,14.6064052 C124.403243,14.6023848 122.388353,12.014956 123.322894,8.3265059 C124.545606,3.50027635 129.003623,0.0243342765 133.988037,0.0208882005 C140.661859,0.0168677784 147.335681,0.0191651625 154.009504,0.0208882005 Z M73.5029201,0.0203138545 C75.0654647,0.0208882005 75.1997908,0.216165845 74.6688011,1.72210109 C74.3094502,2.74156527 73.9018798,3.74552209 73.583286,4.7776219 C73.2830617,5.74596927 72.69926,6.11469942 71.682056,6.1095303 C65.492726,6.07908997 59.3028217,6.0647313 53.1134918,6.13422718 C52.3879016,6.14226801 51.5538172,6.56039191 50.9878109,7.04456561 C50.6548662,7.32886689 50.5245584,8.22427231 50.7220291,8.64871402 C50.9085932,9.04788451 51.642794,9.40627641 52.1404889,9.41259422 C56.5393796,9.47117752 60.939992,9.44533195 65.3394565,9.44820367 C69.1470829,9.45050107 71.1728801,12.0557346 70.2394864,15.7424616 C68.9949615,20.6565661 64.6391243,24.0377412 59.3740031,24.1009193 C55.6082819,24.1462925 51.8419867,24.1095343 48.0756915,24.1106831 C44.197458,24.1118319 40.3197985,24.1170009 36.4415649,24.1095343 C35.0822314,24.1066625 34.8927973,23.8361457 35.330792,22.5869431 C35.7125304,21.49626 36.1373222,20.4193612 36.4817478,19.3166169 C36.7974714,18.3046192 37.4203079,17.9370378 38.4759728,17.9433556 C44.6285641,17.9760933 50.7811555,17.977242 56.9331729,17.9318686 C57.5881558,17.9272739 58.4193698,17.7251041 58.8441616,17.2943446 C59.253454,16.8796667 59.4727385,15.9928765 59.332672,15.4231253 C59.2413993,15.050949 58.3619655,14.6512042 57.8304019,14.6437377 C53.4688242,14.581134 49.1055245,14.611 44.7427987,14.6069796 C40.8203639,14.6029592 38.8037512,11.9167428 39.8806556,8.13869477 C41.2612288,3.29580918 45.5671242,0.0226112385 50.5716298,0.0208882005 C58.2150105,0.0180164704 65.8589653,0.0190581235 73.5029201,0.0203138545 Z M160.307558,0.00019681052 C165.078428,0.0459871213 169.850446,0.0201415507 174.622464,0.0201415507 C179.393908,0.0195672047 184.165353,0.0172698206 188.937371,0.0212902427 C190.307611,0.0224389347 190.475806,0.256772107 190.032645,1.53124591 C189.652628,2.621929 189.218652,3.69595605 188.881689,4.79984908 C188.58089,5.78600119 187.974127,6.12256796 186.969552,6.10935798 C183.875461,6.06800507 180.780796,6.12141926 177.687279,6.08006634 C176.622429,6.06513335 176.063312,6.50163631 175.712572,7.48951146 C173.930168,12.5121674 172.075436,17.5089777 170.313699,22.5379514 C169.914739,23.6768796 169.298217,24.1323359 168.10306,24.0950034 L165.978888,24.0617338 L165.978888,24.0617338 L161.728888,24.0754756 L161.728888,24.0754756 C160.162325,24.0714553 160.036035,23.8842183 160.581376,22.3667963 C162.333929,17.4923216 164.091648,12.6195701 165.845349,7.74509545 C166.351655,6.3379477 166.18633,6.09901976 164.698985,6.09557369 C162.499253,6.09097892 160.300095,6.10131715 158.100363,6.09155327 C156.856412,6.08638416 156.676736,5.83769233 157.078566,4.70852807 C157.466045,3.62071671 157.912651,2.55071008 158.253058,1.44854009 C158.577966,0.398061228 159.191618,-0.0102987881 160.307558,0.00019681052 Z M115.020283,0.00980332243 C116.21257,0.0511562354 117.407153,0.0201415507 118.600014,0.0201415507 C119.793449,0.0201415507 120.986884,0.0121007065 122.180319,0.0218645887 C123.39155,0.0322028169 123.598205,0.300996752 123.191209,1.4399249 C121.621202,5.8273541 120.032825,10.2090399 118.450763,14.5924486 C117.488667,17.2579885 116.48524,19.9091697 115.581123,22.5942373 C115.210291,23.697556 114.580566,24.1197003 113.437647,24.0927061 C111.12655,24.0375688 108.813157,24.0892599 106.501487,24.0703065 C105.363734,24.0605427 105.15593,23.7636058 105.537095,22.7039374 C108.111103,15.5464374 110.700036,8.39525513 113.268304,1.23603206 C113.575417,0.380830847 114.096074,-0.0217857084 115.020283,0.00980332243 Z M25.6950806,6.17305296 C23.1291091,6.18109382 20.5619895,6.17132994 17.9948698,6.18051947 C17.6263343,6.18224249 17.2434477,6.19602681 16.8915594,6.29366563 C15.9604619,6.55269569 15.278499,7.56584206 15.4518599,8.42104327 C15.653923,9.42097967 16.4225664,9.50942896 17.2555026,9.50081377 C18.5574318,9.48645513 19.859361,9.49736771 21.1612902,9.49736771 L21.1612902,9.46348128 C22.6859481,9.46348128 24.213476,9.51919284 25.7352638,9.44510222 C26.8322596,9.39168803 27.6221427,8.44459144 27.5509613,7.42225554 C27.467725,6.23335931 26.6066608,6.17018124 25.6950806,6.17305296 Z" id="Combined-Shape"></path>
        </g>
    </g>
</svg>