<svg xmlns="http://www.w3.org/2000/svg" width="240" height="140"><path fill="#161616" fill-rule="evenodd" d="M61.183 102.61v12.518c0 5.476 7.432 6.379 7.432-.677v-11.84h7.778c0 1.215.032 2.478.066 3.756l.021.853.02.856.016.856c.075 4.992-.167 9.888-2.62 12.815-3.295 3.942-20.492 7.071-20.492-7.988V102.61h7.779Zm65.264-7.778v10.14c2.256-1.504 3.55-3.039 7.432-3.039 9.252 0 12.156 12.909 6.815 19.664-1.384 1.76-3.731 3.325-6.815 3.325-4.243 0-5.401-.933-8.11-4.062v3.717l-7.1-.032V94.832h7.778Zm47 7.101c11.103 0 15.42 9.373 12.065 16.46-2.647 5.596-7.372 6.529-13.089 6.529-6.063 0-11.494-4.754-11.494-11.163 0-1.956.406-3.747 1.008-5.07 1.82-4.063 6.56-6.756 11.51-6.756Zm-57.592 7.372v15.331h-7.553v-12.878c0-4.604-6.98-4.288-7.191 1.986v10.772h-7.372v-12.518c0-4.994-7.372-4.077-7.372 1.7v10.773h-7.492l-.06-21.59h6.664v4.032c3.34-5.657 11.585-5.807 15.105-.647 4.74-7.116 15.27-4.287 15.27 3.04Zm36.258-3.069c.331-1.294 2.091-5.461 8.485-3.987v6.424c-4.378-1.008-7.703.843-7.793 5.401l-.015 10.502h-7.748v-21.98h7.101Zm26.735 7.192c0-8.937-10.487-8.23-10.487.33 0 7.538 10.487 8.832 10.487-.33Zm-48.008-5.763c-6.92 0-5.642 14.263 1.88 11.374 4.047-1.548 4.213-11.374-1.88-11.374Zm-16.534-90.87c6.123-2.467 5.49-2.347 11.63.09 12.366 4.92 25.214 10.817 37.43 15.647 3.717 1.474 7.102 3.069 10.728 4.498l21.438 8.982c.324.135.656.268.993.398l.508.195c.51.194 1.028.386 1.54.581l.51.197c2.872 1.124 5.431 2.417 5.431 4.857 0 4.273-3.295 4.59-8.936 6.951-9.945 4.183-22.718 9.208-32.196 13.45l-26.915 11.284c-17.422 6.89-13.225 8.484-27.728 2.226-10.501-4.543-21.935-8.951-32.136-13.51-9.493-4.242-22.251-9.267-32.196-13.45-.618-.263-2.032-.809-3.498-1.42l-.63-.267c-1.675-.716-3.281-1.48-3.71-1.969-.903-1.023-1.083-1.97-1.083-3.31 0-2.727 3.177-4.012 6.442-5.235l.516-.193a60.932 60.932 0 0 0 2.024-.785l32.165-13.48c12.202-4.815 25.246-10.742 37.673-15.737Zm6.74 8.38h-2.031c-.993 0-14.639 5.792-16.67 6.665L77.807 42.115c-2.633 1.069-5.326 2.242-8.064 3.43l-12.171 5.07c-1.385.602-3.07.903-3.822 1.941.692.963.587.647 1.91 1.189l30.963 12.984c.585.243 3.115 1.34 6.544 2.812l.776.333c2.503 1.072 5.413 2.313 8.365 3.554l.934.392c7.784 3.263 15.6 6.411 16.81 6.404 1.228-.007 11.912-4.361 23.126-9.066l1.403-.59c11.71-4.923 23.592-10.045 25.556-10.85l12.412-5.16c1.91-.798 3.039-1.009 3.76-1.987-.63-.857-2.993-1.61-4.061-2.03l-36.71-15.361c-1.611-.68-6.166-2.627-10.922-4.624l-.772-.325-.773-.324c-5.797-2.425-11.45-4.732-12.025-4.732Zm-1.37 9.448c1.129 0 8.813 3.048 16.938 6.415l.997.413c8.15 3.388 16.493 6.982 18.91 8.05 1.43.633 4.063 1.19 4.063 3.04 0 1.88-2.723 2.467-4.273 3.16l-25.772 10.741c-13.314 5.462-8.094 5.22-21.288-.09-3.37-1.354-6.8-2.738-10.29-4.243-3.521-1.504-6.65-2.783-10.246-4.287-1.971-.828-9.268-3.07-9.268-5.266 0-1.189.812-1.655 1.655-2.046l7.643-3.175c3.595-1.429 6.725-2.888 10.245-4.302 3.37-1.354 6.906-2.934 10.246-4.303 1.534-.632 9.448-4.107 10.44-4.107Zm.347 9.824c-.429 0-4.8 1.907-9.287 3.832l-.77.33c-4.23 1.812-8.372 3.545-9.216 3.616l9.66 4.544c.56.234 2.406 1.032 4.335 1.847l.58.245c2.223.935 4.398 1.82 4.698 1.82l14.398-5.898c1.67-.692 3.084-1.46 4.874-1.881v-.677c-1.098-.09-8.2-3.174-9.689-3.836-.429-.192-2.179-.935-4.069-1.724l-.57-.238c-2.383-.993-4.8-1.98-4.944-1.98Z"/></svg>