<svg xmlns="http://www.w3.org/2000/svg" width="240" height="140"><path fill="#161616" fill-rule="evenodd" d="M126.969 47.614c.373 0 .712.214.89.534l17.214 32.755c.356.712 1.424.712 1.798 0l17.196-32.755c.178-.32.516-.534.926-.534h8.33c.57 0 .926.605.66 1.104L146.87 99.452c-.374.694-1.389.694-1.763 0l-27.111-50.734a.748.748 0 0 1 .658-1.104Zm-80.178 0c8.972 0 15.325 5.537 15.325 13.69 0 4.788-2.24 8.669-5.837 10.467 0 0 8.205 2.35 8.225 12.496 0 10.397-6.516 15.701-18.854 15.701H20.997a.995.995 0 0 1-.997-.997v-50.36c0-.552.445-.997.997-.997Zm52.906 0c8.972 0 15.327 5.537 15.327 13.69 0 4.788-2.242 8.669-5.84 10.467 0 0 8.207 2.35 8.225 12.496 0 10.397-6.515 15.701-18.852 15.701H73.902a.995.995 0 0 1-.997-.997v-50.36c0-.552.445-.997.997-.997ZM45.153 76.488H29.648a.996.996 0 0 0-.998.997v13.903c0 .554.445.999.998.999h15.505c7.457 0 10.681-2.103 10.7-7.94 0-5.856-3.314-7.959-10.7-7.959Zm52.906 0H82.554a.995.995 0 0 0-.997.997v13.903c0 .554.445.999.997.999h15.505c7.459 0 10.68-2.103 10.699-7.94 0-5.856-3.312-7.959-10.7-7.959Zm92.977-35.941c.374-.693 1.387-.693 1.761 0l27.113 50.736a.749.749 0 0 1-.658 1.103h-8.314c-.373 0-.713-.213-.89-.535l-17.214-32.753c-.356-.714-1.424-.714-1.798 0L173.84 91.85c-.18.322-.516.535-.927.535h-8.33a.747.747 0 0 1-.658-1.103ZM44.94 55.18H29.648a.996.996 0 0 0-.998.997V67.89c0 .552.445.997.998.997H44.94c5.643 0 8.509-2.385 8.509-6.854 0-4.45-2.866-6.853-8.51-6.853Zm52.905 0H82.554a.995.995 0 0 0-.997.997V67.89c0 .552.445.997.997.997h15.291c5.643 0 8.51-2.385 8.51-6.854 0-4.45-2.867-6.853-8.51-6.853Z"/></svg>