<svg width="240" height="140" xmlns="http://www.w3.org/2000/svg"><title>Partners / Gatorade</title><path d="M69.577 109.19v5.705h-2.75c-.332-.37-1.194-1.466-3.572-1.466-2.53 0-4.371 1.983-4.371 4.676 0 2.885 1.97 5.057 4.78 5.057.691 0 1.124-.1 1.79-.381v-2.44h-2.897l.005-3.177h7.314l.001 7.804c-1.97 1.345-4.244 2.032-6.775 2.032-5.37 0-9.102-3.532-9.102-8.615 0-5.235 3.886-8.97 9.28-8.97 1.322 0 2.51.204 3.59.616v-.841h2.707Zm41.975.012c5.806 0 8.398 4.38 8.398 8.838 0 4.457-2.592 8.941-8.398 8.941-5.809 0-8.4-4.432-8.4-8.915 0-4.483 2.591-8.864 8.4-8.864Zm-28.673.283 4.485 14.094h1.14v3.016H81.61v-3.016h1.14l-.907-3.194h-4.51l-.803 3.194h1.114v3.016h-6.48v-3.016h1.14l3.55-11.492H74.61v-2.602h8.269Zm19.623 0v5.978h-2.748v-2.577h-2.436v10.693h1.736v3.015H90.89v-3.015H92.6v-10.693h-2.41v2.577H87.44v-5.978h15.06Zm81.216 0v5.566h-2.826V112.5h-4.044v4.225h3.112v3.145h-3.112v3.71h4.044v-2.5h2.826v5.515h-12.83v-3.016h1.32V112.5h-1.32v-3.015h12.83Zm-22.11 0c5.028 0 8.475 2.782 8.475 8.322 0 5.85-3.525 8.788-8.632 8.788h-6.739v-3.016h1.348V112.5h-1.348v-3.015Zm-13.584 0 4.484 14.094h1.14v3.016h-6.895v-3.016h1.141l-.907-3.194h-4.511l-.803 3.194h1.114v3.016h-6.48v-3.016h1.14L141 112.087h-1.245v-2.602h8.27Zm-20.504 0c4.458 0 6.869 1.572 6.869 4.664 0 2.576-1.607 3.787-3.189 4.071v.104c2.41.515 2.8 1.803 2.8 3.658v1.597h1.27v3.016h-5.598v-3.71c0-1.65-.312-2.578-2.179-2.578h-1.062v3.247h1.348v3.04h-7.025v-3.04h1.321V112.5h-1.32v-3.015Zm33.646 3.092h-.492v10.925h.389c2.591 0 4.38-1.417 4.38-5.771 0-3.814-1.658-5.154-4.277-5.154Zm-49.614.542c-1.944 0-3.76 1.674-3.76 4.947 0 3.27 1.841 4.998 3.76 4.998 1.918 0 3.758-1.777 3.758-5.024s-1.814-4.921-3.758-4.921Zm33.154-.646h-.104l-1.4 4.872h2.955l-1.451-4.872Zm-65.145 0h-.103l-1.4 4.872h2.955l-1.452-4.872Zm47.907.027h-1.037v4.715h1.062c1.556 0 2.411-.953 2.411-2.448 0-1.545-.7-2.267-2.436-2.267Zm57.731-3.001c.222 0 .41.078.567.233a.768.768 0 0 1 .234.564.77.77 0 0 1-.234.566.769.769 0 0 1-.567.235.768.768 0 0 1-.567-.235.776.776 0 0 1-.233-.566c0-.22.08-.408.235-.564a.77.77 0 0 1 .565-.233Zm0 .11a.661.661 0 0 0-.487.201.665.665 0 0 0-.201.487c0 .191.067.354.2.49a.663.663 0 0 0 .488.201.66.66 0 0 0 .487-.202.674.674 0 0 0 .201-.489.666.666 0 0 0-.2-.487.661.661 0 0 0-.488-.202Zm-.016.246c.109 0 .189.01.24.03.091.04.136.114.136.225 0 .077-.028.134-.085.171a.337.337 0 0 1-.127.044c.07.01.119.04.15.085a.242.242 0 0 1 .048.137v.095l.003.034c0 .023.004.038.007.045l.006.01h-.145a.017.017 0 0 1-.003-.008.028.028 0 0 1-.001-.01l-.004-.028v-.07c0-.1-.028-.168-.083-.2a.372.372 0 0 0-.172-.028h-.123v.344h-.154v-.876Zm-.02.106h-.133v.318h.14a.425.425 0 0 0 .148-.02c.06-.024.09-.07.09-.137 0-.064-.019-.107-.058-.128a.391.391 0 0 0-.188-.033ZM155.956 13v28.101h-9.574l3.934-4.041-9.154 3.19 7.316-8.791-13.447 4.45-1.436-.544c-2.762-1.038-5.592-1.477-8.69-1.477-12.432 0-21.474 9.765-21.474 23.037 0 6.073 2.012 12.02 5.07 16.213l.005.007.039.053c.048.065.136.181.263.34l.171.208c.063.076.133.158.208.245a4536.496 4536.496 0 0 0-3.577 9.006l6.26-6.431c.41.326.683.52.683.52 3.886 3.02 8.86 4.753 14.36 4.753 3.386 0 5.527-.499 8.792-1.874V67.94h-15.441l15.225-15.645h21.937l.006 38.437c-9.671 6.633-20.845 10.016-33.281 10.016-26.37 0-44.71-17.404-44.71-42.447 0-25.79 19.094-44.195 45.593-44.195 6.478 0 12.32 1.01 17.63 3.043V13h13.292Zm-13.54 21.98-4.14 4.962-3.25 3.897 3.36-1.154h.001l4.636-1.592-32.541 33.44 2.104-5.298.007-.008 7.15-17.975-5.282 2.01 2.055-3.112.001-.001 5.587-8.462 16.41-5.419.001-.001 3.9-1.287Zm16.489-21.396c.457 0 .846.16 1.168.48.323.318.484.705.484 1.16 0 .456-.161.844-.484 1.168a1.59 1.59 0 0 1-1.168.483c-.458 0-.847-.161-1.167-.483a1.598 1.598 0 0 1-.48-1.169c0-.452.162-.839.484-1.16.32-.32.71-.48 1.163-.48Zm0 .224c-.392 0-.726.138-1.003.416-.276.278-.413.61-.413 1.002 0 .395.136.731.41 1.009.277.277.612.416 1.006.416s.73-.139 1.004-.416c.275-.278.414-.614.414-1.01a1.37 1.37 0 0 0-.414-1 1.364 1.364 0 0 0-1.004-.417Zm-.031.508c.224 0 .389.022.493.065.188.078.281.23.281.458 0 .162-.058.28-.176.357a.682.682 0 0 1-.263.086.44.44 0 0 1 .311.177c.067.096.1.189.1.28v.198l.003.069a.33.33 0 0 0 .016.094l.012.023h-.3a.078.078 0 0 0-.004-.018c0-.006-.003-.013-.004-.02l-.007-.059v-.143c0-.208-.056-.346-.171-.413-.067-.04-.185-.058-.355-.058h-.252v.71h-.319v-1.806Zm-.042.217h-.274v.655h.289a.842.842 0 0 0 .304-.041c.125-.048.188-.142.188-.282 0-.131-.04-.219-.122-.264-.08-.045-.208-.068-.385-.068Z" fill="#161616" fill-rule="evenodd"/></svg>