<svg xmlns="http://www.w3.org/2000/svg" width="240" height="140"><path fill="#161616" fill-rule="evenodd" d="M165.573 55.097c3.553 0 6.434.343 8.697 1.07 2.236.713 4.006 1.605 5.323 2.702 1.29 1.112 2.195 2.278 2.689 3.663.425 1.317.644 2.51.644 3.608v4.116c0 2.29-.658 5.034-2.016 6.914-1.345 1.88-3.306 3.237-5.762 4.005-.532.163-2.874.515-5.365.864l-.714.1c-2.742.38-5.472.737-6.007.82-1.207.178-1.481.288-1.989.48-.494.192-.686.26-1.29.59-.37.192-.644.439-1.083.85-.357.384-.618 1.194-.837 1.701-.233.577-.384 1.729-.384 2.387v2.086c0 .507.123 1.07.357 1.618.219.508.658 1.03 1.275 1.537.55.466 1.427.878 2.456 1.193 1.056.288 2.4.453 4.006.453 3.278 0 5.72-.631 6.694-1.687 1.07-1.084 1.592-2.717 1.605-4.322v-.452h8.725v2.565c0 1.51-.315 3.004-1.001 4.349-.659 1.317-1.729 2.524-3.155 3.525-1.468 1.016-3.252 1.77-5.406 2.36-2.222.576-4.43.808-7.462.808-5.872 0-10.22-1-13.088-3.058-2.84-2.071-4.28-4.801-4.266-7.97V66.14c0-1.111.206-2.318.686-3.622.48-1.385 1.4-2.551 2.689-3.662 1.303-1.07 3.086-1.976 5.309-2.69 2.25-.726 5.103-1.07 8.67-1.07Zm-105.29 0c5.859 0 10.194 1 13.074 3.072 2.84 2.058 4.294 4.788 4.294 7.957v25.832c0 1.111-.206 2.306-.686 3.623-.494 1.372-1.399 2.55-2.675 3.661-1.317 1.084-3.1 1.976-5.322 2.69-2.264.712-5.117 1.055-8.67 1.055-3.567 0-6.448-.329-8.698-1.056-2.236-.713-4.006-1.605-5.336-2.689-1.276-1.11-2.195-2.29-2.69-3.661-.438-1.305-.644-2.498-.644-3.608v-4.116c0-2.306.659-5.036 2.017-6.929 1.344-1.865 3.292-3.224 5.761-3.992 1.194-.37 11.016-1.619 12.086-1.797 1.207-.178 1.482-.26 1.99-.48.493-.178.685-.247 1.289-.576.357-.206.631-.44 1.07-.85.37-.385.631-1.194.837-1.716.233-.576.398-1.742.398-2.373v-2.113c0-.493-.11-1.07-.357-1.618-.206-.494-.659-1.03-1.262-1.537-.563-.439-1.427-.864-2.456-1.18-1.07-.288-2.4-.466-4.005-.452-3.293-.014-5.735.617-6.709 1.673-1.07 1.098-1.605 2.717-1.605 4.322v.452H43.26v-2.579c0-1.495.316-2.99 1.002-4.335.658-1.317 1.728-2.51 3.155-3.525 1.454-1.002 3.237-1.756 5.405-2.332 2.209-.577 4.431-.824 7.463-.824ZM197.07 43.38v58.92h-9.274V51.106c-.055-2.895 1.743-6.97 8.766-7.669l.508-.055Zm-61.458.055.438.028v11.633h8.574v7.133h-8.574v27.56c0 .453.084.973.248 1.592.11.494.424 1.029 1.015 1.564.507.506 1.317.946 2.36 1.344 1.029.37 2.413.55 4.197.534h.74v7.478h-.452c-4.02 0-7.203-.44-9.507-1.262-2.304-.864-4.088-1.88-5.31-3.13-1.179-1.246-1.988-2.481-2.248-3.784-.262-1.208-.398-2.154-.398-2.854V62.23h-6.351v-7.133h6.351v-3.951c.027-2.703 1.563-4.65 3.375-5.885 1.837-1.249 3.937-1.811 5.404-1.825h.138Zm-34.187 11.66c3.992 0 7.175.44 9.507 1.276 2.264.85 4.02 1.88 5.24 3.114 1.18 1.221 1.921 2.51 2.182 3.787.26 1.193.439 2.112.439 2.853v36.175h-9.384V67.54c0-.48-.096-1.029-.22-1.591-.136-.48-.466-.988-1.014-1.523-.55-.494-1.345-.92-2.401-1.303-.988-.384-2.414-.549-4.157-.549-1.838 0-3.333.165-4.39.549-1.125.384-1.961.823-2.551 1.262-.604.507-.92 1.001-1.098 1.481-.192.631-.274 1.07-.274 1.51v26.999c-.535 5.252-4.61 7.873-8.876 7.927h-.466V66.126c0-.754.137-1.687.411-2.867.26-1.33 1.084-2.552 2.25-3.759 1.221-1.248 3.018-2.263 5.31-3.128 2.29-.837 5.473-1.276 9.492-1.276ZM68.487 80.283c-.137.59-.411.948-.987 1.263-.577.342-1.112.466-1.578.603-.508.158-2.603.326-4.795.504l-.693.057c-1.964.161-3.88.331-4.677.51-.96.219-1.811.685-2.593 1.248-.617.481-1.043 1.042-1.454 1.865-.549 1.072-.672 2.003-.672 3.142 0 2.318.535 3.676 1.756 4.774 1.248 1.153 3.539 1.7 6.886 1.7 3.443 0 5.734-.589 6.983-1.755 1.207-1.18 1.824-2.84 1.824-5.007Zm97.676-18.121c-3.444 0-5.735.576-6.997 1.756-1.193 1.166-1.81 2.84-1.81 5.02v8.876c.137-.576.41-.946.987-1.262.576-.329 1.111-.452 1.591-.576 1.016-.315 8.382-.672 10.152-1.084.96-.22 1.825-.686 2.593-1.248.603-.48 1.029-1.056 1.454-1.866.549-1.07.658-2.003.658-3.141 0-2.305-.52-3.677-1.742-4.788-1.248-1.152-3.553-1.687-6.886-1.687Zm-82.75-24.926a30.919 30.919 0 0 1 8.04.054c2.304.316 3.43 1.125 4.307 2.47 1.66 2.496.878 6.146-.11 7.353-1.616 1.992-4.713 2.733-7.894 3.325l-.708.13c-4.366.788-8.696 1.449-9.396 4.817-.007.007-.017-2.531-.026-5.172l-.003-.914a5705.88 5705.88 0 0 1-.01-3.715v-.372l-.001-.164v-.28l-.001-.114v-.23c0-4.472 2.167-6.695 5.803-7.188Z"/></svg>