<svg width="240" height="140" xmlns="http://www.w3.org/2000/svg"><title>Partners / Turil</title><path d="M132.624 46.56c10.527-.002 15.063 2.19 16.145 3.767 5.357 5.093 5.907 13.812 1.43 19.61-1.923 2.492-5.444 3.83-10.794 3.831l-4.025.001h-.463l-6.603.001H125.852c.228.752 2.571 3.086 5.074 5.437l.558.522c2.515 2.345 5.045 4.59 5.633 5.169l14.089 13.654c1.257 1.223 2.289 2.204 3.536 3.4 1.318 1.265 2.601 2.304 3.563 3.855l-5.362.014-12.69.179c-4.001.001-7.792-3.716-7.792-3.716-3.14-3-5.844-5.814-8.99-8.79l-13.8-13.074c-3.332-3.224-2.703-2.78-2.607-9.689l-.004-.147v-2.572l22.974-.003c8.845-.002 9.756-3.736 9.755-7.364-.001-6.169-8.207-6.833-15.296-6.853h-.58c-1.54.002-3.012.029-4.321.029h-1.931c-10.212-.013-10.589-.243-10.602-3.867l-.001-.542-.001-.273v-2.575ZM49.237 35l.001 6.862-12.7.001.003 25.307 7.88-.002-.001 7.293h-3.5c-4.663 0-6.818.089-11.476.036-4.659-.055-8.305-1.91-8.305-5.592l-.001-4.565v-.33l-.001-6.369v-.403l-.001-6.39v-.38l-.001-6.996v-1.607l-6.133.001v-5.835a3.538 3.538 0 0 1 0-.208v-.798h.9l.046-.02L49.237 35Zm8.793 11.468c1.677-.03 3.43-.046 4.976 0l4.028-.002v1.017h-.01l-.154 19.524 16.084.167.013-18.025v-1.797h-.004v-.78l14.83-.003.504-.007.004 27.891h-3.506c-12.406.003-21.426.095-33.83.027-6.46-.036-8.755-3.579-8.758-9.441 0-6.152.1-9.735.099-15.886v-2.574h.002v-.11Zm141.882.089.004 20.589 25.079-.003.005 7.291-3.18.001v-.013l-29.353.003c-3.215 0-7.44-2.965-7.441-7.29l-.003-20.576 14.89-.002Zm-24.089.254.004 27.617-14.634.002.17-25.29v-.003h.008v-.86c-.002-.181-.004-.34-.009-.477v-.987l14.461-.002Zm0-8.828-.042 6.38-14.419.056.007-3.86v-2.574l14.453-.002Z" fill="#161616" fill-rule="evenodd"/></svg>