<svg width="240" height="140" xmlns="http://www.w3.org/2000/svg"><title>Partners / asesp</title><path d="m15 72.252 18.903.052c.052 0 .1-.003.154-.003.164 0 .323.008.486.02.3 1.975 1.16 3.916 2.466 5.474 1.484 1.78 3.391 2.895 5.474 3.228.017.232.028.462.028.692V101h-6.954V80.196L15 80.246v-7.994ZM46.313 59.8c.164 0 .328.007.49.015.216.014.424.04.636.069.107.017.219.04.324.06 3.621.733 6.212 4.12 6.855 7.609.028.155.053.31.071.462.027.166.04.338.057.51.015.196.02.396.023.594h.005V101H47.82V71.37h-.011c-.047-1.661-.211-2.54-.847-3.08-.696-.595-1.8-.595-3.638-.595h-.098V59.8l2.936.003c.052 0 .1-.003.15-.003Zm133.842 14.682c4.042 0 6.942 3.033 6.942 6.78v.038c0 3.749-2.938 6.82-6.98 6.82-4.04 0-6.94-3.034-6.94-6.782V81.3c0-3.748 2.937-6.818 6.978-6.818Zm-57.9.038c1.908 0 3.536.602 4.864 1.676l-1.497 2.185c-1.16-.81-2.301-1.3-3.405-1.3-1.104 0-1.684.509-1.684 1.15v.037c0 .866.562 1.15 2.825 1.733 2.657.697 4.154 1.657 4.154 3.955v.038c0 2.618-1.983 4.088-4.808 4.088a8.3 8.3 0 0 1-5.557-2.11l1.702-2.053c1.18.979 2.414 1.6 3.91 1.6 1.18 0 1.89-.47 1.89-1.242v-.038c0-.735-.448-1.111-2.638-1.677-2.638-.678-4.34-1.412-4.34-4.03v-.038c0-2.392 1.908-3.974 4.584-3.974Zm87.627.094 5.613 13.28h-3.012l-1.197-2.958h-5.539l-1.197 2.957h-2.937l5.613-13.28h2.656Zm-16.594.094v10.548h6.53v2.637h-9.411V74.708h2.88Zm-32.403 0 6.137 8.118v-8.118h2.844v13.185h-2.45l-6.344-8.382v8.382h-2.843V74.708h2.656Zm-11.037-.094 5.613 13.28h-3.012l-1.198-2.958h-5.538l-1.197 2.957h-2.938l5.614-13.28h2.656Zm-13.73.094c3.124 0 5.014 1.865 5.014 4.558v.038c0 3.051-2.358 4.633-5.296 4.633h-2.188v3.956h-2.882V74.708Zm-21.477 0v2.58h-7.016v2.675h6.174v2.58h-6.174v2.77h7.11v2.58h-9.973V74.708h9.879Zm65.477 2.449c-2.32 0-3.93 1.846-3.93 4.106v.037c0 2.26 1.647 4.144 3.967 4.144 2.32 0 3.93-1.845 3.93-4.106V81.3c0-2.26-1.647-4.143-3.967-4.143Zm28.398.941-1.74 4.276h3.48l-1.74-4.276Zm-60.034 0-1.74 4.276h3.48l-1.74-4.276Zm-12.608-.772h-2.226v4.031h2.282c1.44 0 2.283-.866 2.283-1.997v-.037c0-1.3-.898-1.997-2.339-1.997Zm-60.833-4.991v7.926H55.548v-7.926h19.493ZM42.303 39v29.146s.003.007.004.018c.01.157.016.312.027.464.091 1.435.213 2.41.856 2.992.684.611 1.869.68 3.705.684h.179v7.897h-.18l-2.937-.005h-.156c-.16 0-.324-.005-.485-.015-.105-.008-.213-.02-.317-.029a6.525 6.525 0 0 1-.642-.096c-3.624-.73-6.218-4.125-6.855-7.61a8.636 8.636 0 0 1-.077-.516c-.02-.154-.04-.304-.052-.455a10.35 10.35 0 0 1-.023-.678l.026-1.425h-.026V39h6.953Zm124.083 31.602 1.516.47c-.43 1.583-1.01 2.6-2.32 2.6-1.16 0-2.133-.735-2.807-.735-.58 0-.805.32-1.066.924l-1.516-.471c.43-1.583 1.01-2.6 2.32-2.6 1.16 0 2.133.735 2.807.735.58 0 .804-.32 1.066-.923ZM15 59.752l19.423.032v7.93L15 67.748v-7.998ZM54.56 39l-.064 20.749 20.628.002v7.996l-18.909-.052h-.15c-.164 0-.326-.005-.485-.016a11.23 11.23 0 0 0-2.468-5.48c-1.485-1.772-3.392-2.892-5.473-3.224-.02-.229-.029-.46-.029-.69V39h6.95Zm74.035 12.88c4.042 0 6.942 3.033 6.942 6.782v.037c0 3.748-2.938 6.819-6.979 6.819s-6.941-3.033-6.941-6.781v-.038c0-3.748 2.937-6.818 6.978-6.818Zm52.777.001c2.47 0 3.948.829 5.164 2.034l-1.833 2.128c-1.01-.922-2.04-1.487-3.35-1.487-2.207 0-3.798 1.845-3.798 4.106v.037c0 2.26 1.554 4.145 3.799 4.145 1.497 0 2.413-.603 3.442-1.545l1.834 1.865c-1.347 1.45-2.844 2.354-5.37 2.354-3.854 0-6.717-2.995-6.717-6.781v-.038c0-3.748 2.807-6.818 6.83-6.818Zm-36.276 0c2.47 0 3.948.829 5.164 2.034l-1.834 2.128c-1.01-.922-2.04-1.487-3.349-1.487-2.207 0-3.798 1.845-3.798 4.106v.037c0 2.26 1.553 4.145 3.798 4.145 1.497 0 2.414-.603 3.443-1.545l1.833 1.865c-1.347 1.45-2.844 2.354-5.37 2.354-3.853 0-6.716-2.995-6.716-6.781v-.038c0-3.748 2.806-6.818 6.829-6.818Zm58.015 0c4.041 0 6.942 3.032 6.942 6.78v.038c0 3.748-2.938 6.819-6.98 6.819-4.04 0-6.94-3.033-6.94-6.781v-.038c0-3.748 2.937-6.818 6.978-6.818Zm-89.426.038c1.908 0 3.536.602 4.864 1.676l-1.497 2.185c-1.16-.81-2.3-1.3-3.405-1.3-1.104 0-1.684.509-1.684 1.149v.038c0 .866.562 1.149 2.825 1.733 2.657.696 4.154 1.657 4.154 3.955v.038c0 2.618-1.983 4.087-4.809 4.087a8.302 8.302 0 0 1-5.556-2.11l1.703-2.053c1.178.98 2.413 1.602 3.91 1.602 1.178 0 1.89-.472 1.89-1.244v-.037c0-.735-.45-1.112-2.639-1.676-2.638-.679-4.34-1.414-4.34-4.031v-.038c0-2.392 1.908-3.974 4.584-3.974Zm79.005.188v13.185h-2.881V52.107h2.881Zm-25.107-.094 5.613 13.28h-3.012l-1.198-2.958h-5.538l-1.197 2.957h-2.938l5.613-13.28h2.657Zm-11.17.094v13.185h-2.88V52.107h2.88Zm-55.131-.094 5.613 13.28h-3.012l-1.198-2.958h-5.538l-1.198 2.957h-2.937l5.613-13.28h2.657Zm114.737.094 6.137 8.118v-8.118H225v13.185h-2.45l-6.344-8.382v8.382h-2.843V52.107h2.656Zm-87.461 2.449c-2.32 0-3.93 1.845-3.93 4.106v.037c0 2.26 1.647 4.144 3.967 4.144 2.32 0 3.93-1.846 3.93-4.106v-.038c0-2.26-1.647-4.143-3.967-4.143Zm74.516 0c-2.32 0-3.93 1.845-3.93 4.106v.037c0 2.26 1.647 4.144 3.967 4.144 2.32 0 3.929-1.846 3.929-4.106v-.038c0-2.26-1.646-4.143-3.966-4.143Zm-103.158.941-1.74 4.276h3.48l-1.74-4.276Zm66.301 0-1.74 4.276h3.48l-1.74-4.276Z" fill="#161616" fill-rule="evenodd"/></svg>