<svg xmlns="http://www.w3.org/2000/svg" xml:space="preserve" id="Layer_1" x="0" y="0" style="enable-background:new 0 0 240 140" version="1.1" viewBox="0 0 240 140"><style>.st0{fill-rule:evenodd;clip-rule:evenodd;fill:#161616}</style><path d="M62.2 50.7v38.8c0 .3.1.3.1.6 1 .2 8.2.2 9.2 0 .1-.3.1-.3.1-.6V57.7h7.1c2.5 0 4.9 2.6 4.9 5.1v1c0 2.1-1.6 4-3.2 4.6-3.2 1.3-6.5-.9-6.5 1.8 0 .2 2.3 4.5 2.6 5.1l7.3 14.1c.3.5.5.8 1.2.8h8.6c1.9 0 .1-2.2-.6-3.5l-1-1.9c-.9-1.6-2.7-5.3-3.5-6.7-.3-.5-1.9-3.4-1.9-3.9 1.4-.3 3.8-2.7 4.7-4.1 3-4.6 3.1-10.1-.1-14.5L90 54c-.2-.2-.2-.2-.4-.3-1-.8-1.7-1.6-3.2-2.2-1.3-.6-3.1-1.2-5-1.2H62.9c-.3-.1-.7.1-.7.4M27 69.2c0 2.5-.1 3.8-1.2 6.1-.4.9-1.8 2.8-2.5 3.4-6.4 5.1-8.7 2.1-14.5 3.5-3.1.7-5.5 2.4-7.1 5-.6.9-3.2 5.5-.2 5.5h13c5 0 9.4-1.3 13-3.8.6-.4 1.1-.7 1.6-1.2l1.6-1.3c1.4-1.4 2.6-3 3.7-4.7.4-.6.7-1.2 1-1.9 2.4-4.7 2.9-10.2 1.6-15.4-.7-2.8-1.9-5.2-3.4-7.4-.2-.3-.3-.5-.5-.7-2.1-2.7-5.1-5.3-8.3-6.7-2.2-1-5.5-2.2-8.7-2.2H1c-2.3 0 0 4.7 1.1 6.1.5.7.9 1.1 1.5 1.6.9.9 2.5 1.8 3.9 2.3 4.7 1.5 10.2-1.1 15.3 3.5 1 .9 2.1 2.2 2.8 3.5.6 1.2 1.4 2.9 1.4 4.8M100.7 50.7v38.9c0 .3.2.5.5.5h23.4c.5 0 .6-.6.6-1.1v-6c0-.8-.3-1.3-1-1.3h-14.1v-8.1h9.6c.8 0 1.3-.3 1.3-1v-5.2c0-.4-.2-.9-.6-.9h-10.3v-8h14.2c.4 0 .8-.1.8-.5v-7.3c0-.3-.2-.5-.5-.5h-23.4c-.3 0-.5.2-.5.5M201.5 50.5c0 .4 5.1 13.6 5.7 15.2.6 1.7 1.3 3.4 2 5.1 2 5.7 4.7 11.9 6.7 17.7.3.9.6 1.8 1.8 1.8h6c1.3 0 1.5-.8 1.8-1.8 2.1-5.8 4.7-12.2 6.9-18 1.3-3.5 2.6-6.8 3.9-10.2l3.4-9c.2-.4.5-1.1-.2-1.1h-9.1c-.7 0-1.3 2.3-1.5 3L221 76.7c0 .1-.1.3-.2.5l-.2.4c-.2-1.1-.8-2.4-1.1-3.4-.4-1.2-.8-2.3-1.2-3.5L212 51.6c-.2-.7-.3-1.3-1.1-1.3h-9c-.2-.1-.4 0-.4.2M148.2 90.6h13.7c1.5 0 .1-3.4-.2-3.9-.3-.6-.7-1.2-1.1-1.7-1.2-1.6-3.1-2.9-5.1-3.5-4.3-1.2-7.4.8-12-2.1-1.7-1.1-3.2-2.7-4-4.6-2-4.5-.8-9.2 2.6-12.4.9-.9 2.3-1.7 3.6-2.1 4.4-1.7 9.5.9 13.8-3.2 1.6-1.5 2.6-3.1 3.1-5.4.2-.9 0-1.6-1-1.6h-11.1c-4.6 0-8.5 1-12 3.2-1.7 1.1-1.6 1.2-2.9 2.2-1.7 1.3-3.3 3.9-4.4 5.8-1.1 2-2 5-2.1 8 0 .6-.1.6-.1 1.1l.4 3.4c.5 2.8 1.4 5 2.8 7.3.4.6.7 1 1.1 1.5 3.2 4.6 9.3 8 14.9 8M166.8 50.7V58c0 .4.5.6.9.6h9.9v30.8c0 .6.3.9.9.9h7.9c.6 0 .9-.3.9-.9V58.6h9.9c.4 0 .9-.2.9-.6v-7.2c0-.3-.2-.5-.5-.5h-30.2c-.4-.1-.6.1-.6.4M44.5 50.4c-.1.3-.1.3-.1.6v38.6c0 .4.5.6.9.6 1.7 0 7.2.2 8.5-.1.1-.3.1-.3.1-.6V50.7c0-.3-.2-.5-.5-.5-1.4 0-8.3-.1-8.9.2" class="st0"/><path d="M8.7 69.2c0 1.7 0 2.5.8 4.1 2.1 4.2 8 5.3 11.5 1.9 4-3.9 2.4-10.9-3.5-12.3-2.5-.6-4.9.3-6.5 1.7-1 .9-2.3 2.8-2.3 4.6" class="st0"/></svg>